<mxfile host="app.diagrams.net" agent="Mozilla/5.0 (Windows NT 10.0; Win64; x64) AppleWebKit/537.36 (KHTML, like Gecko) Chrome/129.0.0.0 Safari/537.36" version="24.7.17">
  <diagram id="C5RBs43oDa-KdzZeNtuy" name="Page-1">
    <mxGraphModel dx="1605" dy="447" grid="1" gridSize="10" guides="1" tooltips="1" connect="1" arrows="1" fold="1" page="1" pageScale="1" pageWidth="827" pageHeight="1169" math="0" shadow="0">
      <root>
        <mxCell id="WIyWlLk6GJQsqaUBKTNV-0" />
        <mxCell id="WIyWlLk6GJQsqaUBKTNV-1" parent="WIyWlLk6GJQsqaUBKTNV-0" />
        <mxCell id="-QABsE26IqD1V3xhMsvn-311" style="edgeStyle=orthogonalEdgeStyle;rounded=0;orthogonalLoop=1;jettySize=auto;html=1;exitX=0.5;exitY=1;exitDx=0;exitDy=0;entryX=0.5;entryY=0;entryDx=0;entryDy=0;labelBackgroundColor=none;fontColor=default;" edge="1" parent="WIyWlLk6GJQsqaUBKTNV-1" source="-QABsE26IqD1V3xhMsvn-82" target="-QABsE26IqD1V3xhMsvn-300">
          <mxGeometry relative="1" as="geometry" />
        </mxCell>
        <mxCell id="-QABsE26IqD1V3xhMsvn-82" value="START" style="ellipse;whiteSpace=wrap;html=1;labelBackgroundColor=none;rounded=1;" vertex="1" parent="WIyWlLk6GJQsqaUBKTNV-1">
          <mxGeometry x="369.99" y="41" width="103" height="70" as="geometry" />
        </mxCell>
        <mxCell id="-QABsE26IqD1V3xhMsvn-178" style="edgeStyle=orthogonalEdgeStyle;rounded=0;orthogonalLoop=1;jettySize=auto;html=1;exitX=0.5;exitY=1;exitDx=0;exitDy=0;entryX=0.5;entryY=0;entryDx=0;entryDy=0;labelBackgroundColor=none;fontColor=default;" edge="1" parent="WIyWlLk6GJQsqaUBKTNV-1" source="-QABsE26IqD1V3xhMsvn-84" target="-QABsE26IqD1V3xhMsvn-126">
          <mxGeometry relative="1" as="geometry" />
        </mxCell>
        <mxCell id="-QABsE26IqD1V3xhMsvn-84" value="Login" style="whiteSpace=wrap;html=1;labelBackgroundColor=none;rounded=1;" vertex="1" parent="WIyWlLk6GJQsqaUBKTNV-1">
          <mxGeometry x="371.01" y="650" width="104" height="50" as="geometry" />
        </mxCell>
        <mxCell id="-QABsE26IqD1V3xhMsvn-85" value="" style="edgeStyle=orthogonalEdgeStyle;rounded=1;orthogonalLoop=1;jettySize=auto;html=1;labelBackgroundColor=none;fontColor=default;" edge="1" parent="WIyWlLk6GJQsqaUBKTNV-1" source="-QABsE26IqD1V3xhMsvn-89" target="-QABsE26IqD1V3xhMsvn-133">
          <mxGeometry relative="1" as="geometry" />
        </mxCell>
        <mxCell id="-QABsE26IqD1V3xhMsvn-86" value="No" style="edgeLabel;html=1;align=center;verticalAlign=middle;resizable=0;points=[];labelBackgroundColor=none;" vertex="1" connectable="0" parent="-QABsE26IqD1V3xhMsvn-85">
          <mxGeometry x="-0.0998" y="-2" relative="1" as="geometry">
            <mxPoint as="offset" />
          </mxGeometry>
        </mxCell>
        <mxCell id="-QABsE26IqD1V3xhMsvn-87" value="" style="edgeStyle=orthogonalEdgeStyle;rounded=1;orthogonalLoop=1;jettySize=auto;html=1;labelBackgroundColor=none;fontColor=default;" edge="1" parent="WIyWlLk6GJQsqaUBKTNV-1" source="-QABsE26IqD1V3xhMsvn-89" target="-QABsE26IqD1V3xhMsvn-135">
          <mxGeometry relative="1" as="geometry" />
        </mxCell>
        <mxCell id="-QABsE26IqD1V3xhMsvn-88" value="Yes" style="edgeLabel;html=1;align=center;verticalAlign=middle;resizable=0;points=[];labelBackgroundColor=none;" vertex="1" connectable="0" parent="-QABsE26IqD1V3xhMsvn-87">
          <mxGeometry x="-0.2888" relative="1" as="geometry">
            <mxPoint as="offset" />
          </mxGeometry>
        </mxCell>
        <mxCell id="-QABsE26IqD1V3xhMsvn-89" value="admin atau user biasa" style="rhombus;whiteSpace=wrap;html=1;labelBackgroundColor=none;rounded=1;" vertex="1" parent="WIyWlLk6GJQsqaUBKTNV-1">
          <mxGeometry x="364" y="1179" width="120" height="110" as="geometry" />
        </mxCell>
        <mxCell id="-QABsE26IqD1V3xhMsvn-90" value="" style="edgeStyle=orthogonalEdgeStyle;rounded=1;orthogonalLoop=1;jettySize=auto;html=1;labelBackgroundColor=none;fontColor=default;" edge="1" parent="WIyWlLk6GJQsqaUBKTNV-1" source="-QABsE26IqD1V3xhMsvn-92" target="-QABsE26IqD1V3xhMsvn-94">
          <mxGeometry relative="1" as="geometry" />
        </mxCell>
        <mxCell id="-QABsE26IqD1V3xhMsvn-91" value="" style="edgeStyle=orthogonalEdgeStyle;rounded=1;orthogonalLoop=1;jettySize=auto;html=1;labelBackgroundColor=none;fontColor=default;" edge="1" parent="WIyWlLk6GJQsqaUBKTNV-1" source="-QABsE26IqD1V3xhMsvn-92" target="-QABsE26IqD1V3xhMsvn-96">
          <mxGeometry relative="1" as="geometry" />
        </mxCell>
        <mxCell id="-QABsE26IqD1V3xhMsvn-92" value="username = &quot;Dilla&quot; password = &quot;87&quot;" style="rhombus;whiteSpace=wrap;html=1;labelBackgroundColor=none;rounded=1;" vertex="1" parent="WIyWlLk6GJQsqaUBKTNV-1">
          <mxGeometry x="354" y="1482" width="139" height="120" as="geometry" />
        </mxCell>
        <mxCell id="-QABsE26IqD1V3xhMsvn-316" style="edgeStyle=orthogonalEdgeStyle;rounded=0;orthogonalLoop=1;jettySize=auto;html=1;exitX=0.5;exitY=1;exitDx=0;exitDy=0;entryX=0.5;entryY=0;entryDx=0;entryDy=0;labelBackgroundColor=none;fontColor=default;" edge="1" parent="WIyWlLk6GJQsqaUBKTNV-1" source="-QABsE26IqD1V3xhMsvn-94" target="-QABsE26IqD1V3xhMsvn-315">
          <mxGeometry relative="1" as="geometry" />
        </mxCell>
        <mxCell id="-QABsE26IqD1V3xhMsvn-94" value="username = &quot;user1&quot; password = &quot;user123&quot;" style="rhombus;whiteSpace=wrap;html=1;labelBackgroundColor=none;rounded=1;" vertex="1" parent="WIyWlLk6GJQsqaUBKTNV-1">
          <mxGeometry x="539" y="1472" width="162" height="140" as="geometry" />
        </mxCell>
        <mxCell id="-QABsE26IqD1V3xhMsvn-95" value="" style="edgeStyle=orthogonalEdgeStyle;rounded=1;orthogonalLoop=1;jettySize=auto;html=1;labelBackgroundColor=none;fontColor=default;" edge="1" parent="WIyWlLk6GJQsqaUBKTNV-1" source="-QABsE26IqD1V3xhMsvn-96" target="-QABsE26IqD1V3xhMsvn-130">
          <mxGeometry relative="1" as="geometry" />
        </mxCell>
        <mxCell id="-QABsE26IqD1V3xhMsvn-96" value="admin" style="rhombus;whiteSpace=wrap;html=1;labelBackgroundColor=none;rounded=1;" vertex="1" parent="WIyWlLk6GJQsqaUBKTNV-1">
          <mxGeometry x="371.99" y="1648" width="105" height="105" as="geometry" />
        </mxCell>
        <mxCell id="-QABsE26IqD1V3xhMsvn-121" value="" style="edgeStyle=orthogonalEdgeStyle;rounded=1;orthogonalLoop=1;jettySize=auto;html=1;labelBackgroundColor=none;fontColor=default;" edge="1" parent="WIyWlLk6GJQsqaUBKTNV-1" source="-QABsE26IqD1V3xhMsvn-122" target="-QABsE26IqD1V3xhMsvn-148">
          <mxGeometry relative="1" as="geometry" />
        </mxCell>
        <mxCell id="-QABsE26IqD1V3xhMsvn-122" value="Keluar" style="shape=parallelogram;perimeter=parallelogramPerimeter;whiteSpace=wrap;html=1;fixedSize=1;labelBackgroundColor=none;rounded=1;" vertex="1" parent="WIyWlLk6GJQsqaUBKTNV-1">
          <mxGeometry x="756.5" y="2294.995" width="120" height="60" as="geometry" />
        </mxCell>
        <mxCell id="-QABsE26IqD1V3xhMsvn-123" style="edgeStyle=orthogonalEdgeStyle;rounded=0;orthogonalLoop=1;jettySize=auto;html=1;exitX=0;exitY=0.5;exitDx=0;exitDy=0;entryX=0;entryY=0.5;entryDx=0;entryDy=0;labelBackgroundColor=none;fontColor=default;" edge="1" parent="WIyWlLk6GJQsqaUBKTNV-1" source="-QABsE26IqD1V3xhMsvn-124" target="-QABsE26IqD1V3xhMsvn-156">
          <mxGeometry relative="1" as="geometry">
            <Array as="points">
              <mxPoint x="-42" y="2435" />
              <mxPoint x="-170" y="2435" />
              <mxPoint x="-170" y="1994" />
            </Array>
          </mxGeometry>
        </mxCell>
        <mxCell id="-QABsE26IqD1V3xhMsvn-124" value="Input &quot;Enter untuk keluar&quot;" style="shape=parallelogram;perimeter=parallelogramPerimeter;whiteSpace=wrap;html=1;fixedSize=1;labelBackgroundColor=none;rounded=1;" vertex="1" parent="WIyWlLk6GJQsqaUBKTNV-1">
          <mxGeometry x="-51.75" y="2402" width="136.5" height="70" as="geometry" />
        </mxCell>
        <mxCell id="-QABsE26IqD1V3xhMsvn-185" value="" style="edgeStyle=orthogonalEdgeStyle;rounded=0;orthogonalLoop=1;jettySize=auto;html=1;labelBackgroundColor=none;fontColor=default;" edge="1" parent="WIyWlLk6GJQsqaUBKTNV-1" source="-QABsE26IqD1V3xhMsvn-126" target="-QABsE26IqD1V3xhMsvn-184">
          <mxGeometry relative="1" as="geometry" />
        </mxCell>
        <mxCell id="-QABsE26IqD1V3xhMsvn-126" value="Output &quot;Masukkan username dan password &quot;" style="shape=parallelogram;perimeter=parallelogramPerimeter;whiteSpace=wrap;html=1;fixedSize=1;labelBackgroundColor=none;rounded=1;" vertex="1" parent="WIyWlLk6GJQsqaUBKTNV-1">
          <mxGeometry x="313.51" y="753" width="219" height="60" as="geometry" />
        </mxCell>
        <mxCell id="-QABsE26IqD1V3xhMsvn-129" value="" style="edgeStyle=orthogonalEdgeStyle;rounded=0;orthogonalLoop=1;jettySize=auto;html=1;labelBackgroundColor=none;fontColor=default;" edge="1" parent="WIyWlLk6GJQsqaUBKTNV-1" source="-QABsE26IqD1V3xhMsvn-130" target="-QABsE26IqD1V3xhMsvn-156">
          <mxGeometry relative="1" as="geometry" />
        </mxCell>
        <mxCell id="-QABsE26IqD1V3xhMsvn-130" value="Sistem Manajemen Siklus Menstruasi (Admin)&lt;div&gt;&lt;span style=&quot;background-color: initial;&quot;&gt;1. Lihat Data Siklus&lt;/span&gt;&lt;br&gt;&lt;/div&gt;&lt;div&gt;&lt;div&gt;2.&amp;nbsp;Tambah Data Siklus&lt;/div&gt;&lt;div&gt;3.&amp;nbsp;Ganti Data Siklus&lt;/div&gt;&lt;div&gt;4.&amp;nbsp;Hapus Data Siklus&lt;/div&gt;&lt;div&gt;5. Keluar&lt;/div&gt;&lt;/div&gt;" style="shape=parallelogram;perimeter=parallelogramPerimeter;whiteSpace=wrap;html=1;fixedSize=1;labelBackgroundColor=none;rounded=1;" vertex="1" parent="WIyWlLk6GJQsqaUBKTNV-1">
          <mxGeometry x="326" y="1794" width="195" height="110.01" as="geometry" />
        </mxCell>
        <mxCell id="-QABsE26IqD1V3xhMsvn-131" value="" style="edgeStyle=orthogonalEdgeStyle;rounded=0;orthogonalLoop=1;jettySize=auto;html=1;labelBackgroundColor=none;fontColor=default;" edge="1" parent="WIyWlLk6GJQsqaUBKTNV-1" source="-QABsE26IqD1V3xhMsvn-132" target="-QABsE26IqD1V3xhMsvn-157">
          <mxGeometry relative="1" as="geometry" />
        </mxCell>
        <mxCell id="-QABsE26IqD1V3xhMsvn-132" value="Sistem Manajemen Siklus Menstruasi (User biasa)&lt;div&gt;&lt;span style=&quot;background-color: initial;&quot;&gt;1. Lihat Data Siklus&lt;/span&gt;&lt;/div&gt;" style="shape=parallelogram;perimeter=parallelogramPerimeter;whiteSpace=wrap;html=1;fixedSize=1;labelBackgroundColor=none;rounded=1;" vertex="1" parent="WIyWlLk6GJQsqaUBKTNV-1">
          <mxGeometry x="532" y="1794" width="176" height="80" as="geometry" />
        </mxCell>
        <mxCell id="-QABsE26IqD1V3xhMsvn-312" style="edgeStyle=orthogonalEdgeStyle;rounded=0;orthogonalLoop=1;jettySize=auto;html=1;exitX=1;exitY=0.5;exitDx=0;exitDy=0;entryX=1;entryY=0.5;entryDx=0;entryDy=0;labelBackgroundColor=none;fontColor=default;" edge="1" parent="WIyWlLk6GJQsqaUBKTNV-1" source="-QABsE26IqD1V3xhMsvn-133" target="-QABsE26IqD1V3xhMsvn-261">
          <mxGeometry relative="1" as="geometry">
            <Array as="points">
              <mxPoint x="1050" y="1236" />
              <mxPoint x="1050" y="2669" />
            </Array>
          </mxGeometry>
        </mxCell>
        <mxCell id="-QABsE26IqD1V3xhMsvn-133" value="Login gagal" style="shape=parallelogram;perimeter=parallelogramPerimeter;whiteSpace=wrap;html=1;fixedSize=1;labelBackgroundColor=none;rounded=1;" vertex="1" parent="WIyWlLk6GJQsqaUBKTNV-1">
          <mxGeometry x="540" y="1203.995" width="120" height="60" as="geometry" />
        </mxCell>
        <mxCell id="-QABsE26IqD1V3xhMsvn-313" style="edgeStyle=orthogonalEdgeStyle;rounded=0;orthogonalLoop=1;jettySize=auto;html=1;exitX=0.5;exitY=1;exitDx=0;exitDy=0;entryX=0.5;entryY=0;entryDx=0;entryDy=0;labelBackgroundColor=none;fontColor=default;" edge="1" parent="WIyWlLk6GJQsqaUBKTNV-1" source="-QABsE26IqD1V3xhMsvn-135" target="-QABsE26IqD1V3xhMsvn-94">
          <mxGeometry relative="1" as="geometry" />
        </mxCell>
        <mxCell id="-QABsE26IqD1V3xhMsvn-314" style="edgeStyle=orthogonalEdgeStyle;rounded=0;orthogonalLoop=1;jettySize=auto;html=1;exitX=0.5;exitY=1;exitDx=0;exitDy=0;entryX=0.5;entryY=0;entryDx=0;entryDy=0;labelBackgroundColor=none;fontColor=default;" edge="1" parent="WIyWlLk6GJQsqaUBKTNV-1" source="-QABsE26IqD1V3xhMsvn-135" target="-QABsE26IqD1V3xhMsvn-92">
          <mxGeometry relative="1" as="geometry" />
        </mxCell>
        <mxCell id="-QABsE26IqD1V3xhMsvn-135" value="Berhasil login" style="shape=parallelogram;perimeter=parallelogramPerimeter;whiteSpace=wrap;html=1;fixedSize=1;labelBackgroundColor=none;rounded=1;" vertex="1" parent="WIyWlLk6GJQsqaUBKTNV-1">
          <mxGeometry x="364" y="1336.995" width="120" height="60" as="geometry" />
        </mxCell>
        <mxCell id="-QABsE26IqD1V3xhMsvn-136" value="" style="edgeStyle=orthogonalEdgeStyle;rounded=1;orthogonalLoop=1;jettySize=auto;html=1;labelBackgroundColor=none;fontColor=default;" edge="1" parent="WIyWlLk6GJQsqaUBKTNV-1" source="-QABsE26IqD1V3xhMsvn-137" target="-QABsE26IqD1V3xhMsvn-141">
          <mxGeometry relative="1" as="geometry" />
        </mxCell>
        <mxCell id="-QABsE26IqD1V3xhMsvn-137" value="Masukkan tanggal dan durasi siklus yang ingin ditambahkan" style="shape=parallelogram;perimeter=parallelogramPerimeter;whiteSpace=wrap;html=1;fixedSize=1;labelBackgroundColor=none;rounded=1;" vertex="1" parent="WIyWlLk6GJQsqaUBKTNV-1">
          <mxGeometry x="140.31" y="2402" width="152.37" height="70" as="geometry" />
        </mxCell>
        <mxCell id="-QABsE26IqD1V3xhMsvn-138" value="" style="edgeStyle=orthogonalEdgeStyle;rounded=1;orthogonalLoop=1;jettySize=auto;html=1;labelBackgroundColor=none;fontColor=default;" edge="1" parent="WIyWlLk6GJQsqaUBKTNV-1" source="-QABsE26IqD1V3xhMsvn-139" target="-QABsE26IqD1V3xhMsvn-143">
          <mxGeometry relative="1" as="geometry" />
        </mxCell>
        <mxCell id="-QABsE26IqD1V3xhMsvn-139" value="Masukkan tanggal siklus yang ingin diganti dan masukkan tanggal baru" style="shape=parallelogram;perimeter=parallelogramPerimeter;whiteSpace=wrap;html=1;fixedSize=1;labelBackgroundColor=none;rounded=1;" vertex="1" parent="WIyWlLk6GJQsqaUBKTNV-1">
          <mxGeometry x="342.88" y="2397" width="161.75" height="80" as="geometry" />
        </mxCell>
        <mxCell id="-QABsE26IqD1V3xhMsvn-140" value="" style="edgeStyle=orthogonalEdgeStyle;rounded=0;orthogonalLoop=1;jettySize=auto;html=1;labelBackgroundColor=none;fontColor=default;" edge="1" parent="WIyWlLk6GJQsqaUBKTNV-1" source="-QABsE26IqD1V3xhMsvn-141" target="-QABsE26IqD1V3xhMsvn-150">
          <mxGeometry relative="1" as="geometry" />
        </mxCell>
        <mxCell id="-QABsE26IqD1V3xhMsvn-141" value="Data siklus berhasil ditambahkan" style="shape=parallelogram;perimeter=parallelogramPerimeter;whiteSpace=wrap;html=1;fixedSize=1;labelBackgroundColor=none;rounded=1;" vertex="1" parent="WIyWlLk6GJQsqaUBKTNV-1">
          <mxGeometry x="147.25" y="2526" width="138.26" height="60" as="geometry" />
        </mxCell>
        <mxCell id="-QABsE26IqD1V3xhMsvn-142" value="" style="edgeStyle=orthogonalEdgeStyle;rounded=0;orthogonalLoop=1;jettySize=auto;html=1;labelBackgroundColor=none;fontColor=default;" edge="1" parent="WIyWlLk6GJQsqaUBKTNV-1" source="-QABsE26IqD1V3xhMsvn-143" target="-QABsE26IqD1V3xhMsvn-152">
          <mxGeometry relative="1" as="geometry" />
        </mxCell>
        <mxCell id="-QABsE26IqD1V3xhMsvn-143" value="Data siklus berhasil diperbarui" style="shape=parallelogram;perimeter=parallelogramPerimeter;whiteSpace=wrap;html=1;fixedSize=1;labelBackgroundColor=none;rounded=1;" vertex="1" parent="WIyWlLk6GJQsqaUBKTNV-1">
          <mxGeometry x="356.99" y="2526" width="135" height="60" as="geometry" />
        </mxCell>
        <mxCell id="-QABsE26IqD1V3xhMsvn-144" value="" style="edgeStyle=orthogonalEdgeStyle;rounded=1;orthogonalLoop=1;jettySize=auto;html=1;labelBackgroundColor=none;fontColor=default;" edge="1" parent="WIyWlLk6GJQsqaUBKTNV-1" source="-QABsE26IqD1V3xhMsvn-145" target="-QABsE26IqD1V3xhMsvn-147">
          <mxGeometry relative="1" as="geometry" />
        </mxCell>
        <mxCell id="-QABsE26IqD1V3xhMsvn-145" value="Masukkan tanggal siklus yang ingin dihapus" style="shape=parallelogram;perimeter=parallelogramPerimeter;whiteSpace=wrap;html=1;fixedSize=1;labelBackgroundColor=none;rounded=1;" vertex="1" parent="WIyWlLk6GJQsqaUBKTNV-1">
          <mxGeometry x="555" y="2402" width="130" height="70" as="geometry" />
        </mxCell>
        <mxCell id="-QABsE26IqD1V3xhMsvn-146" value="" style="edgeStyle=orthogonalEdgeStyle;rounded=0;orthogonalLoop=1;jettySize=auto;html=1;labelBackgroundColor=none;fontColor=default;" edge="1" parent="WIyWlLk6GJQsqaUBKTNV-1" source="-QABsE26IqD1V3xhMsvn-147" target="-QABsE26IqD1V3xhMsvn-154">
          <mxGeometry relative="1" as="geometry" />
        </mxCell>
        <mxCell id="-QABsE26IqD1V3xhMsvn-147" value="Data siklus telah dihapus" style="shape=parallelogram;perimeter=parallelogramPerimeter;whiteSpace=wrap;html=1;fixedSize=1;labelBackgroundColor=none;rounded=1;" vertex="1" parent="WIyWlLk6GJQsqaUBKTNV-1">
          <mxGeometry x="560" y="2525.995" width="120" height="60" as="geometry" />
        </mxCell>
        <mxCell id="-QABsE26IqD1V3xhMsvn-260" style="edgeStyle=orthogonalEdgeStyle;rounded=0;orthogonalLoop=1;jettySize=auto;html=1;exitX=0.5;exitY=1;exitDx=0;exitDy=0;entryX=0.5;entryY=0;entryDx=0;entryDy=0;labelBackgroundColor=none;fontColor=default;" edge="1" parent="WIyWlLk6GJQsqaUBKTNV-1" source="-QABsE26IqD1V3xhMsvn-148" target="-QABsE26IqD1V3xhMsvn-259">
          <mxGeometry relative="1" as="geometry" />
        </mxCell>
        <mxCell id="-QABsE26IqD1V3xhMsvn-148" value="Menu yang anda pilih tidak tersedia" style="shape=parallelogram;perimeter=parallelogramPerimeter;whiteSpace=wrap;html=1;fixedSize=1;labelBackgroundColor=none;rounded=1;" vertex="1" parent="WIyWlLk6GJQsqaUBKTNV-1">
          <mxGeometry x="744.75" y="2407" width="143.5" height="60" as="geometry" />
        </mxCell>
        <mxCell id="-QABsE26IqD1V3xhMsvn-149" style="edgeStyle=orthogonalEdgeStyle;rounded=0;orthogonalLoop=1;jettySize=auto;html=1;exitX=0;exitY=0.5;exitDx=0;exitDy=0;entryX=0;entryY=0.5;entryDx=0;entryDy=0;labelBackgroundColor=none;fontColor=default;" edge="1" parent="WIyWlLk6GJQsqaUBKTNV-1" source="-QABsE26IqD1V3xhMsvn-150" target="-QABsE26IqD1V3xhMsvn-156">
          <mxGeometry relative="1" as="geometry">
            <Array as="points">
              <mxPoint x="-170" y="2667" />
              <mxPoint x="-170" y="1994" />
            </Array>
          </mxGeometry>
        </mxCell>
        <mxCell id="-QABsE26IqD1V3xhMsvn-150" value="Input &quot;Enter untuk keluar&quot;" style="shape=parallelogram;perimeter=parallelogramPerimeter;whiteSpace=wrap;html=1;fixedSize=1;labelBackgroundColor=none;rounded=1;" vertex="1" parent="WIyWlLk6GJQsqaUBKTNV-1">
          <mxGeometry x="148.19" y="2632" width="136.38" height="70.01" as="geometry" />
        </mxCell>
        <mxCell id="-QABsE26IqD1V3xhMsvn-151" style="edgeStyle=orthogonalEdgeStyle;rounded=0;orthogonalLoop=1;jettySize=auto;html=1;exitX=0.5;exitY=1;exitDx=0;exitDy=0;entryX=0;entryY=0.5;entryDx=0;entryDy=0;labelBackgroundColor=none;fontColor=default;" edge="1" parent="WIyWlLk6GJQsqaUBKTNV-1" source="-QABsE26IqD1V3xhMsvn-152" target="-QABsE26IqD1V3xhMsvn-156">
          <mxGeometry relative="1" as="geometry">
            <Array as="points">
              <mxPoint x="424" y="2765" />
              <mxPoint x="-170" y="2765" />
              <mxPoint x="-170" y="1993" />
              <mxPoint x="352" y="1993" />
            </Array>
            <mxPoint x="424.24500000000035" y="2688.01" as="sourcePoint" />
            <mxPoint x="351.5100000000002" y="2023" as="targetPoint" />
          </mxGeometry>
        </mxCell>
        <mxCell id="-QABsE26IqD1V3xhMsvn-152" value="Input &quot;Enter untuk keluar&quot;" style="shape=parallelogram;perimeter=parallelogramPerimeter;whiteSpace=wrap;html=1;fixedSize=1;labelBackgroundColor=none;rounded=1;" vertex="1" parent="WIyWlLk6GJQsqaUBKTNV-1">
          <mxGeometry x="357" y="2632" width="134.49" height="70.01" as="geometry" />
        </mxCell>
        <mxCell id="-QABsE26IqD1V3xhMsvn-153" style="edgeStyle=orthogonalEdgeStyle;rounded=0;orthogonalLoop=1;jettySize=auto;html=1;exitX=0.5;exitY=1;exitDx=0;exitDy=0;entryX=0;entryY=0.5;entryDx=0;entryDy=0;labelBackgroundColor=none;fontColor=default;" edge="1" parent="WIyWlLk6GJQsqaUBKTNV-1" source="-QABsE26IqD1V3xhMsvn-154" target="-QABsE26IqD1V3xhMsvn-156">
          <mxGeometry relative="1" as="geometry">
            <Array as="points">
              <mxPoint x="620" y="2815" />
              <mxPoint x="-170" y="2815" />
              <mxPoint x="-170" y="1994" />
            </Array>
          </mxGeometry>
        </mxCell>
        <mxCell id="-QABsE26IqD1V3xhMsvn-154" value="Input &quot;Enter untuk keluar&quot;" style="shape=parallelogram;perimeter=parallelogramPerimeter;whiteSpace=wrap;html=1;fixedSize=1;labelBackgroundColor=none;rounded=1;" vertex="1" parent="WIyWlLk6GJQsqaUBKTNV-1">
          <mxGeometry x="555" y="2632" width="130" height="70.01" as="geometry" />
        </mxCell>
        <mxCell id="-QABsE26IqD1V3xhMsvn-252" style="edgeStyle=orthogonalEdgeStyle;rounded=0;orthogonalLoop=1;jettySize=auto;html=1;exitX=0.5;exitY=1;exitDx=0;exitDy=0;entryX=0.5;entryY=0;entryDx=0;entryDy=0;labelBackgroundColor=none;fontColor=default;" edge="1" parent="WIyWlLk6GJQsqaUBKTNV-1" source="-QABsE26IqD1V3xhMsvn-156" target="-QABsE26IqD1V3xhMsvn-221">
          <mxGeometry relative="1" as="geometry" />
        </mxCell>
        <mxCell id="-QABsE26IqD1V3xhMsvn-253" style="edgeStyle=orthogonalEdgeStyle;rounded=0;orthogonalLoop=1;jettySize=auto;html=1;exitX=0.5;exitY=1;exitDx=0;exitDy=0;entryX=0.5;entryY=0;entryDx=0;entryDy=0;labelBackgroundColor=none;fontColor=default;" edge="1" parent="WIyWlLk6GJQsqaUBKTNV-1" source="-QABsE26IqD1V3xhMsvn-156" target="-QABsE26IqD1V3xhMsvn-220">
          <mxGeometry relative="1" as="geometry" />
        </mxCell>
        <mxCell id="-QABsE26IqD1V3xhMsvn-254" style="edgeStyle=orthogonalEdgeStyle;rounded=0;orthogonalLoop=1;jettySize=auto;html=1;exitX=0.5;exitY=1;exitDx=0;exitDy=0;entryX=0.5;entryY=0;entryDx=0;entryDy=0;labelBackgroundColor=none;fontColor=default;" edge="1" parent="WIyWlLk6GJQsqaUBKTNV-1" source="-QABsE26IqD1V3xhMsvn-156" target="-QABsE26IqD1V3xhMsvn-218">
          <mxGeometry relative="1" as="geometry" />
        </mxCell>
        <mxCell id="-QABsE26IqD1V3xhMsvn-255" style="edgeStyle=orthogonalEdgeStyle;rounded=0;orthogonalLoop=1;jettySize=auto;html=1;exitX=0.5;exitY=1;exitDx=0;exitDy=0;entryX=0.5;entryY=0;entryDx=0;entryDy=0;labelBackgroundColor=none;fontColor=default;" edge="1" parent="WIyWlLk6GJQsqaUBKTNV-1" source="-QABsE26IqD1V3xhMsvn-156" target="-QABsE26IqD1V3xhMsvn-216">
          <mxGeometry relative="1" as="geometry" />
        </mxCell>
        <mxCell id="-QABsE26IqD1V3xhMsvn-256" style="edgeStyle=orthogonalEdgeStyle;rounded=0;orthogonalLoop=1;jettySize=auto;html=1;exitX=0.5;exitY=1;exitDx=0;exitDy=0;entryX=0.5;entryY=0;entryDx=0;entryDy=0;labelBackgroundColor=none;fontColor=default;" edge="1" parent="WIyWlLk6GJQsqaUBKTNV-1" source="-QABsE26IqD1V3xhMsvn-156" target="-QABsE26IqD1V3xhMsvn-217">
          <mxGeometry relative="1" as="geometry" />
        </mxCell>
        <mxCell id="-QABsE26IqD1V3xhMsvn-156" value="Masukkan pilihan menu" style="shape=parallelogram;perimeter=parallelogramPerimeter;whiteSpace=wrap;html=1;fixedSize=1;labelBackgroundColor=none;rounded=1;" vertex="1" parent="WIyWlLk6GJQsqaUBKTNV-1">
          <mxGeometry x="341.51" y="1954" width="163" height="80" as="geometry" />
        </mxCell>
        <mxCell id="-QABsE26IqD1V3xhMsvn-263" style="edgeStyle=orthogonalEdgeStyle;rounded=0;orthogonalLoop=1;jettySize=auto;html=1;exitX=1;exitY=0.5;exitDx=0;exitDy=0;entryX=1;entryY=0.5;entryDx=0;entryDy=0;labelBackgroundColor=none;fontColor=default;" edge="1" parent="WIyWlLk6GJQsqaUBKTNV-1" source="-QABsE26IqD1V3xhMsvn-157" target="-QABsE26IqD1V3xhMsvn-261">
          <mxGeometry relative="1" as="geometry">
            <Array as="points">
              <mxPoint x="940" y="1993" />
              <mxPoint x="940" y="2669" />
            </Array>
          </mxGeometry>
        </mxCell>
        <mxCell id="-QABsE26IqD1V3xhMsvn-157" value="Input &quot;Enter untuk keluar&quot;" style="shape=parallelogram;perimeter=parallelogramPerimeter;whiteSpace=wrap;html=1;fixedSize=1;labelBackgroundColor=none;rounded=1;" vertex="1" parent="WIyWlLk6GJQsqaUBKTNV-1">
          <mxGeometry x="536" y="1953" width="168" height="80" as="geometry" />
        </mxCell>
        <mxCell id="-QABsE26IqD1V3xhMsvn-289" style="edgeStyle=orthogonalEdgeStyle;rounded=0;orthogonalLoop=1;jettySize=auto;html=1;exitX=0.5;exitY=1;exitDx=0;exitDy=0;entryX=0.5;entryY=0;entryDx=0;entryDy=0;labelBackgroundColor=none;fontColor=default;" edge="1" parent="WIyWlLk6GJQsqaUBKTNV-1" source="-QABsE26IqD1V3xhMsvn-176">
          <mxGeometry relative="1" as="geometry">
            <mxPoint x="424" y="1182" as="targetPoint" />
          </mxGeometry>
        </mxCell>
        <mxCell id="-QABsE26IqD1V3xhMsvn-176" value="percobaan login = salah &amp;lt;= 3" style="whiteSpace=wrap;html=1;labelBackgroundColor=none;rounded=1;" vertex="1" parent="WIyWlLk6GJQsqaUBKTNV-1">
          <mxGeometry x="361" y="1092" width="125.02" height="50" as="geometry" />
        </mxCell>
        <mxCell id="-QABsE26IqD1V3xhMsvn-322" style="edgeStyle=orthogonalEdgeStyle;rounded=0;orthogonalLoop=1;jettySize=auto;html=1;exitX=0.5;exitY=1;exitDx=0;exitDy=0;entryX=0.5;entryY=0;entryDx=0;entryDy=0;labelBackgroundColor=none;fontColor=default;" edge="1" parent="WIyWlLk6GJQsqaUBKTNV-1" source="-QABsE26IqD1V3xhMsvn-184" target="-QABsE26IqD1V3xhMsvn-320">
          <mxGeometry relative="1" as="geometry" />
        </mxCell>
        <mxCell id="-QABsE26IqD1V3xhMsvn-184" value="Input &quot;username dan password&quot;" style="shape=parallelogram;perimeter=parallelogramPerimeter;whiteSpace=wrap;html=1;fixedSize=1;labelBackgroundColor=none;rounded=1;" vertex="1" parent="WIyWlLk6GJQsqaUBKTNV-1">
          <mxGeometry x="313.51" y="861" width="219" height="60" as="geometry" />
        </mxCell>
        <mxCell id="-QABsE26IqD1V3xhMsvn-195" style="edgeStyle=orthogonalEdgeStyle;rounded=0;orthogonalLoop=1;jettySize=auto;html=1;exitX=0.5;exitY=1;exitDx=0;exitDy=0;entryX=0.5;entryY=0;entryDx=0;entryDy=0;labelBackgroundColor=none;fontColor=default;" edge="1" parent="WIyWlLk6GJQsqaUBKTNV-1" source="-QABsE26IqD1V3xhMsvn-193" target="-QABsE26IqD1V3xhMsvn-124">
          <mxGeometry relative="1" as="geometry" />
        </mxCell>
        <mxCell id="-QABsE26IqD1V3xhMsvn-193" value="Lihat Data Siklus" style="shape=process;whiteSpace=wrap;html=1;backgroundOutline=1;labelBackgroundColor=none;" vertex="1" parent="WIyWlLk6GJQsqaUBKTNV-1">
          <mxGeometry x="-43.5" y="2295" width="120" height="60" as="geometry" />
        </mxCell>
        <mxCell id="-QABsE26IqD1V3xhMsvn-198" style="edgeStyle=orthogonalEdgeStyle;rounded=0;orthogonalLoop=1;jettySize=auto;html=1;exitX=0.5;exitY=1;exitDx=0;exitDy=0;entryX=0.5;entryY=0;entryDx=0;entryDy=0;labelBackgroundColor=none;fontColor=default;" edge="1" parent="WIyWlLk6GJQsqaUBKTNV-1" source="-QABsE26IqD1V3xhMsvn-196" target="-QABsE26IqD1V3xhMsvn-137">
          <mxGeometry relative="1" as="geometry" />
        </mxCell>
        <mxCell id="-QABsE26IqD1V3xhMsvn-196" value="Tambah Data Siklus" style="shape=process;whiteSpace=wrap;html=1;backgroundOutline=1;labelBackgroundColor=none;" vertex="1" parent="WIyWlLk6GJQsqaUBKTNV-1">
          <mxGeometry x="156.5" y="2295" width="120" height="60" as="geometry" />
        </mxCell>
        <mxCell id="-QABsE26IqD1V3xhMsvn-201" style="edgeStyle=orthogonalEdgeStyle;rounded=0;orthogonalLoop=1;jettySize=auto;html=1;exitX=0.5;exitY=1;exitDx=0;exitDy=0;entryX=0.5;entryY=0;entryDx=0;entryDy=0;labelBackgroundColor=none;fontColor=default;" edge="1" parent="WIyWlLk6GJQsqaUBKTNV-1" source="-QABsE26IqD1V3xhMsvn-199" target="-QABsE26IqD1V3xhMsvn-139">
          <mxGeometry relative="1" as="geometry" />
        </mxCell>
        <mxCell id="-QABsE26IqD1V3xhMsvn-199" value="Ganti Data Siklus" style="shape=process;whiteSpace=wrap;html=1;backgroundOutline=1;labelBackgroundColor=none;" vertex="1" parent="WIyWlLk6GJQsqaUBKTNV-1">
          <mxGeometry x="363.01" y="2295" width="120" height="60" as="geometry" />
        </mxCell>
        <mxCell id="-QABsE26IqD1V3xhMsvn-204" style="edgeStyle=orthogonalEdgeStyle;rounded=0;orthogonalLoop=1;jettySize=auto;html=1;exitX=0.5;exitY=1;exitDx=0;exitDy=0;entryX=0.5;entryY=0;entryDx=0;entryDy=0;labelBackgroundColor=none;fontColor=default;" edge="1" parent="WIyWlLk6GJQsqaUBKTNV-1" source="-QABsE26IqD1V3xhMsvn-202" target="-QABsE26IqD1V3xhMsvn-145">
          <mxGeometry relative="1" as="geometry" />
        </mxCell>
        <mxCell id="-QABsE26IqD1V3xhMsvn-202" value="Hapus Data Siklus" style="shape=process;whiteSpace=wrap;html=1;backgroundOutline=1;labelBackgroundColor=none;" vertex="1" parent="WIyWlLk6GJQsqaUBKTNV-1">
          <mxGeometry x="560" y="2295" width="120" height="60" as="geometry" />
        </mxCell>
        <mxCell id="-QABsE26IqD1V3xhMsvn-226" style="edgeStyle=orthogonalEdgeStyle;rounded=0;orthogonalLoop=1;jettySize=auto;html=1;exitX=0.5;exitY=1;exitDx=0;exitDy=0;entryX=0.5;entryY=0;entryDx=0;entryDy=0;labelBackgroundColor=none;fontColor=default;" edge="1" parent="WIyWlLk6GJQsqaUBKTNV-1" source="-QABsE26IqD1V3xhMsvn-216" target="-QABsE26IqD1V3xhMsvn-193">
          <mxGeometry relative="1" as="geometry" />
        </mxCell>
        <mxCell id="-QABsE26IqD1V3xhMsvn-242" value="Yes" style="edgeLabel;html=1;align=center;verticalAlign=middle;resizable=0;points=[];labelBackgroundColor=none;" vertex="1" connectable="0" parent="-QABsE26IqD1V3xhMsvn-226">
          <mxGeometry x="-0.2428" y="-1" relative="1" as="geometry">
            <mxPoint as="offset" />
          </mxGeometry>
        </mxCell>
        <mxCell id="-QABsE26IqD1V3xhMsvn-241" style="edgeStyle=orthogonalEdgeStyle;rounded=0;orthogonalLoop=1;jettySize=auto;html=1;exitX=1;exitY=0.5;exitDx=0;exitDy=0;entryX=0;entryY=0.5;entryDx=0;entryDy=0;labelBackgroundColor=none;fontColor=default;" edge="1" parent="WIyWlLk6GJQsqaUBKTNV-1" source="-QABsE26IqD1V3xhMsvn-216" target="-QABsE26IqD1V3xhMsvn-217">
          <mxGeometry relative="1" as="geometry" />
        </mxCell>
        <mxCell id="-QABsE26IqD1V3xhMsvn-247" value="No" style="edgeLabel;html=1;align=center;verticalAlign=middle;resizable=0;points=[];labelBackgroundColor=none;" vertex="1" connectable="0" parent="-QABsE26IqD1V3xhMsvn-241">
          <mxGeometry x="0.0596" relative="1" as="geometry">
            <mxPoint as="offset" />
          </mxGeometry>
        </mxCell>
        <mxCell id="-QABsE26IqD1V3xhMsvn-216" value="1" style="rhombus;whiteSpace=wrap;html=1;labelBackgroundColor=none;" vertex="1" parent="WIyWlLk6GJQsqaUBKTNV-1">
          <mxGeometry x="-23.5" y="2168.01" width="80" height="80" as="geometry" />
        </mxCell>
        <mxCell id="-QABsE26IqD1V3xhMsvn-225" style="edgeStyle=orthogonalEdgeStyle;rounded=0;orthogonalLoop=1;jettySize=auto;html=1;exitX=0.5;exitY=1;exitDx=0;exitDy=0;entryX=0.5;entryY=0;entryDx=0;entryDy=0;labelBackgroundColor=none;fontColor=default;" edge="1" parent="WIyWlLk6GJQsqaUBKTNV-1" source="-QABsE26IqD1V3xhMsvn-217" target="-QABsE26IqD1V3xhMsvn-196">
          <mxGeometry relative="1" as="geometry" />
        </mxCell>
        <mxCell id="-QABsE26IqD1V3xhMsvn-243" value="Yes" style="edgeLabel;html=1;align=center;verticalAlign=middle;resizable=0;points=[];labelBackgroundColor=none;" vertex="1" connectable="0" parent="-QABsE26IqD1V3xhMsvn-225">
          <mxGeometry x="-0.2712" relative="1" as="geometry">
            <mxPoint as="offset" />
          </mxGeometry>
        </mxCell>
        <mxCell id="-QABsE26IqD1V3xhMsvn-228" style="edgeStyle=orthogonalEdgeStyle;rounded=0;orthogonalLoop=1;jettySize=auto;html=1;exitX=1;exitY=0.5;exitDx=0;exitDy=0;entryX=0;entryY=0.5;entryDx=0;entryDy=0;labelBackgroundColor=none;fontColor=default;" edge="1" parent="WIyWlLk6GJQsqaUBKTNV-1" source="-QABsE26IqD1V3xhMsvn-217" target="-QABsE26IqD1V3xhMsvn-218">
          <mxGeometry relative="1" as="geometry" />
        </mxCell>
        <mxCell id="-QABsE26IqD1V3xhMsvn-248" value="No" style="edgeLabel;html=1;align=center;verticalAlign=middle;resizable=0;points=[];labelBackgroundColor=none;" vertex="1" connectable="0" parent="-QABsE26IqD1V3xhMsvn-228">
          <mxGeometry x="0.0497" relative="1" as="geometry">
            <mxPoint as="offset" />
          </mxGeometry>
        </mxCell>
        <mxCell id="-QABsE26IqD1V3xhMsvn-217" value="2" style="rhombus;whiteSpace=wrap;html=1;labelBackgroundColor=none;" vertex="1" parent="WIyWlLk6GJQsqaUBKTNV-1">
          <mxGeometry x="176.5" y="2168.01" width="80" height="80" as="geometry" />
        </mxCell>
        <mxCell id="-QABsE26IqD1V3xhMsvn-224" style="edgeStyle=orthogonalEdgeStyle;rounded=0;orthogonalLoop=1;jettySize=auto;html=1;exitX=0.5;exitY=1;exitDx=0;exitDy=0;entryX=0.5;entryY=0;entryDx=0;entryDy=0;labelBackgroundColor=none;fontColor=default;" edge="1" parent="WIyWlLk6GJQsqaUBKTNV-1" source="-QABsE26IqD1V3xhMsvn-218" target="-QABsE26IqD1V3xhMsvn-199">
          <mxGeometry relative="1" as="geometry" />
        </mxCell>
        <mxCell id="-QABsE26IqD1V3xhMsvn-244" value="Yes" style="edgeLabel;html=1;align=center;verticalAlign=middle;resizable=0;points=[];labelBackgroundColor=none;" vertex="1" connectable="0" parent="-QABsE26IqD1V3xhMsvn-224">
          <mxGeometry x="-0.2513" relative="1" as="geometry">
            <mxPoint as="offset" />
          </mxGeometry>
        </mxCell>
        <mxCell id="-QABsE26IqD1V3xhMsvn-229" style="edgeStyle=orthogonalEdgeStyle;rounded=0;orthogonalLoop=1;jettySize=auto;html=1;exitX=1;exitY=0.5;exitDx=0;exitDy=0;entryX=0;entryY=0.5;entryDx=0;entryDy=0;labelBackgroundColor=none;fontColor=default;" edge="1" parent="WIyWlLk6GJQsqaUBKTNV-1" source="-QABsE26IqD1V3xhMsvn-218" target="-QABsE26IqD1V3xhMsvn-220">
          <mxGeometry relative="1" as="geometry" />
        </mxCell>
        <mxCell id="-QABsE26IqD1V3xhMsvn-249" value="No" style="edgeLabel;html=1;align=center;verticalAlign=middle;resizable=0;points=[];labelBackgroundColor=none;" vertex="1" connectable="0" parent="-QABsE26IqD1V3xhMsvn-229">
          <mxGeometry x="-0.0287" y="1" relative="1" as="geometry">
            <mxPoint as="offset" />
          </mxGeometry>
        </mxCell>
        <mxCell id="-QABsE26IqD1V3xhMsvn-218" value="3" style="rhombus;whiteSpace=wrap;html=1;labelBackgroundColor=none;" vertex="1" parent="WIyWlLk6GJQsqaUBKTNV-1">
          <mxGeometry x="383.5" y="2168.01" width="80" height="80" as="geometry" />
        </mxCell>
        <mxCell id="-QABsE26IqD1V3xhMsvn-222" style="edgeStyle=orthogonalEdgeStyle;rounded=0;orthogonalLoop=1;jettySize=auto;html=1;exitX=0.5;exitY=1;exitDx=0;exitDy=0;entryX=0.5;entryY=0;entryDx=0;entryDy=0;labelBackgroundColor=none;fontColor=default;" edge="1" parent="WIyWlLk6GJQsqaUBKTNV-1" source="-QABsE26IqD1V3xhMsvn-220" target="-QABsE26IqD1V3xhMsvn-202">
          <mxGeometry relative="1" as="geometry" />
        </mxCell>
        <mxCell id="-QABsE26IqD1V3xhMsvn-245" value="Yes" style="edgeLabel;html=1;align=center;verticalAlign=middle;resizable=0;points=[];labelBackgroundColor=none;" vertex="1" connectable="0" parent="-QABsE26IqD1V3xhMsvn-222">
          <mxGeometry x="-0.3279" y="-1" relative="1" as="geometry">
            <mxPoint as="offset" />
          </mxGeometry>
        </mxCell>
        <mxCell id="-QABsE26IqD1V3xhMsvn-230" style="edgeStyle=orthogonalEdgeStyle;rounded=0;orthogonalLoop=1;jettySize=auto;html=1;exitX=1;exitY=0.5;exitDx=0;exitDy=0;entryX=0;entryY=0.5;entryDx=0;entryDy=0;labelBackgroundColor=none;fontColor=default;" edge="1" parent="WIyWlLk6GJQsqaUBKTNV-1" source="-QABsE26IqD1V3xhMsvn-220" target="-QABsE26IqD1V3xhMsvn-221">
          <mxGeometry relative="1" as="geometry" />
        </mxCell>
        <mxCell id="-QABsE26IqD1V3xhMsvn-250" value="No" style="edgeLabel;html=1;align=center;verticalAlign=middle;resizable=0;points=[];labelBackgroundColor=none;" vertex="1" connectable="0" parent="-QABsE26IqD1V3xhMsvn-230">
          <mxGeometry x="-0.0215" y="1" relative="1" as="geometry">
            <mxPoint as="offset" />
          </mxGeometry>
        </mxCell>
        <mxCell id="-QABsE26IqD1V3xhMsvn-220" value="4" style="rhombus;whiteSpace=wrap;html=1;labelBackgroundColor=none;" vertex="1" parent="WIyWlLk6GJQsqaUBKTNV-1">
          <mxGeometry x="580" y="2168.01" width="80" height="80" as="geometry" />
        </mxCell>
        <mxCell id="-QABsE26IqD1V3xhMsvn-223" style="edgeStyle=orthogonalEdgeStyle;rounded=0;orthogonalLoop=1;jettySize=auto;html=1;exitX=0.5;exitY=1;exitDx=0;exitDy=0;entryX=0.5;entryY=0;entryDx=0;entryDy=0;labelBackgroundColor=none;fontColor=default;" edge="1" parent="WIyWlLk6GJQsqaUBKTNV-1" source="-QABsE26IqD1V3xhMsvn-221" target="-QABsE26IqD1V3xhMsvn-122">
          <mxGeometry relative="1" as="geometry" />
        </mxCell>
        <mxCell id="-QABsE26IqD1V3xhMsvn-246" value="Yes" style="edgeLabel;html=1;align=center;verticalAlign=middle;resizable=0;points=[];labelBackgroundColor=none;" vertex="1" connectable="0" parent="-QABsE26IqD1V3xhMsvn-223">
          <mxGeometry x="-0.2995" y="-1" relative="1" as="geometry">
            <mxPoint as="offset" />
          </mxGeometry>
        </mxCell>
        <mxCell id="-QABsE26IqD1V3xhMsvn-221" value="5" style="rhombus;whiteSpace=wrap;html=1;labelBackgroundColor=none;" vertex="1" parent="WIyWlLk6GJQsqaUBKTNV-1">
          <mxGeometry x="776.5" y="2168.01" width="80" height="80" as="geometry" />
        </mxCell>
        <mxCell id="-QABsE26IqD1V3xhMsvn-262" value="" style="edgeStyle=orthogonalEdgeStyle;rounded=0;orthogonalLoop=1;jettySize=auto;html=1;labelBackgroundColor=none;fontColor=default;" edge="1" parent="WIyWlLk6GJQsqaUBKTNV-1" source="-QABsE26IqD1V3xhMsvn-259" target="-QABsE26IqD1V3xhMsvn-261">
          <mxGeometry relative="1" as="geometry" />
        </mxCell>
        <mxCell id="-QABsE26IqD1V3xhMsvn-259" value="Input &quot;Enter untuk keluar&quot;" style="shape=parallelogram;perimeter=parallelogramPerimeter;whiteSpace=wrap;html=1;fixedSize=1;labelBackgroundColor=none;rounded=1;" vertex="1" parent="WIyWlLk6GJQsqaUBKTNV-1">
          <mxGeometry x="751.5" y="2526" width="130" height="70.01" as="geometry" />
        </mxCell>
        <mxCell id="-QABsE26IqD1V3xhMsvn-261" value="END" style="ellipse;whiteSpace=wrap;html=1;labelBackgroundColor=none;rounded=1;" vertex="1" parent="WIyWlLk6GJQsqaUBKTNV-1">
          <mxGeometry x="766.5" y="2632" width="100" height="73.98" as="geometry" />
        </mxCell>
        <mxCell id="-QABsE26IqD1V3xhMsvn-299" value="" style="edgeStyle=orthogonalEdgeStyle;rounded=0;orthogonalLoop=1;jettySize=auto;html=1;labelBackgroundColor=none;fontColor=default;" edge="1" parent="WIyWlLk6GJQsqaUBKTNV-1" source="-QABsE26IqD1V3xhMsvn-300" target="-QABsE26IqD1V3xhMsvn-302">
          <mxGeometry relative="1" as="geometry" />
        </mxCell>
        <mxCell id="-QABsE26IqD1V3xhMsvn-300" value="def lihat siklus" style="shape=internalStorage;whiteSpace=wrap;html=1;backgroundOutline=1;labelBackgroundColor=none;" vertex="1" parent="WIyWlLk6GJQsqaUBKTNV-1">
          <mxGeometry x="353.52" y="155" width="136.5" height="72" as="geometry" />
        </mxCell>
        <mxCell id="-QABsE26IqD1V3xhMsvn-301" value="" style="edgeStyle=orthogonalEdgeStyle;rounded=0;orthogonalLoop=1;jettySize=auto;html=1;labelBackgroundColor=none;fontColor=default;" edge="1" parent="WIyWlLk6GJQsqaUBKTNV-1" source="-QABsE26IqD1V3xhMsvn-302" target="-QABsE26IqD1V3xhMsvn-304">
          <mxGeometry relative="1" as="geometry" />
        </mxCell>
        <mxCell id="-QABsE26IqD1V3xhMsvn-302" value="def tambah siklus" style="shape=internalStorage;whiteSpace=wrap;html=1;backgroundOutline=1;labelBackgroundColor=none;" vertex="1" parent="WIyWlLk6GJQsqaUBKTNV-1">
          <mxGeometry x="347" y="267" width="150.75" height="72" as="geometry" />
        </mxCell>
        <mxCell id="-QABsE26IqD1V3xhMsvn-303" value="" style="edgeStyle=orthogonalEdgeStyle;rounded=0;orthogonalLoop=1;jettySize=auto;html=1;labelBackgroundColor=none;fontColor=default;" edge="1" parent="WIyWlLk6GJQsqaUBKTNV-1" source="-QABsE26IqD1V3xhMsvn-304" target="-QABsE26IqD1V3xhMsvn-306">
          <mxGeometry relative="1" as="geometry" />
        </mxCell>
        <mxCell id="-QABsE26IqD1V3xhMsvn-304" value="def ganti siklus" style="shape=internalStorage;whiteSpace=wrap;html=1;backgroundOutline=1;labelBackgroundColor=none;" vertex="1" parent="WIyWlLk6GJQsqaUBKTNV-1">
          <mxGeometry x="341" y="387" width="163" height="72" as="geometry" />
        </mxCell>
        <mxCell id="-QABsE26IqD1V3xhMsvn-327" style="edgeStyle=orthogonalEdgeStyle;rounded=0;orthogonalLoop=1;jettySize=auto;html=1;exitX=0.5;exitY=1;exitDx=0;exitDy=0;entryX=0.5;entryY=0;entryDx=0;entryDy=0;" edge="1" parent="WIyWlLk6GJQsqaUBKTNV-1" source="-QABsE26IqD1V3xhMsvn-306" target="-QABsE26IqD1V3xhMsvn-84">
          <mxGeometry relative="1" as="geometry" />
        </mxCell>
        <mxCell id="-QABsE26IqD1V3xhMsvn-306" value="def hapus siklus" style="shape=internalStorage;whiteSpace=wrap;html=1;backgroundOutline=1;labelBackgroundColor=none;" vertex="1" parent="WIyWlLk6GJQsqaUBKTNV-1">
          <mxGeometry x="341" y="517" width="163" height="72" as="geometry" />
        </mxCell>
        <mxCell id="-QABsE26IqD1V3xhMsvn-317" style="edgeStyle=orthogonalEdgeStyle;rounded=0;orthogonalLoop=1;jettySize=auto;html=1;exitX=0.5;exitY=1;exitDx=0;exitDy=0;entryX=0.5;entryY=0;entryDx=0;entryDy=0;labelBackgroundColor=none;fontColor=default;" edge="1" parent="WIyWlLk6GJQsqaUBKTNV-1" source="-QABsE26IqD1V3xhMsvn-315" target="-QABsE26IqD1V3xhMsvn-132">
          <mxGeometry relative="1" as="geometry" />
        </mxCell>
        <mxCell id="-QABsE26IqD1V3xhMsvn-315" value="admin" style="rhombus;whiteSpace=wrap;html=1;labelBackgroundColor=none;rounded=1;" vertex="1" parent="WIyWlLk6GJQsqaUBKTNV-1">
          <mxGeometry x="567.5" y="1648" width="105" height="105" as="geometry" />
        </mxCell>
        <mxCell id="-QABsE26IqD1V3xhMsvn-323" style="edgeStyle=orthogonalEdgeStyle;rounded=0;orthogonalLoop=1;jettySize=auto;html=1;exitX=0.5;exitY=1;exitDx=0;exitDy=0;entryX=0.5;entryY=0;entryDx=0;entryDy=0;labelBackgroundColor=none;fontColor=default;" edge="1" parent="WIyWlLk6GJQsqaUBKTNV-1" source="-QABsE26IqD1V3xhMsvn-320" target="-QABsE26IqD1V3xhMsvn-176">
          <mxGeometry relative="1" as="geometry" />
        </mxCell>
        <mxCell id="-QABsE26IqD1V3xhMsvn-320" value="username = &quot;Dilla&quot; dan password = &quot;87&quot; atau username = &quot;user1&quot; dan password = &quot;user123&quot;" style="whiteSpace=wrap;html=1;labelBackgroundColor=none;rounded=1;" vertex="1" parent="WIyWlLk6GJQsqaUBKTNV-1">
          <mxGeometry x="341.99" y="967" width="163.01" height="80" as="geometry" />
        </mxCell>
      </root>
    </mxGraphModel>
  </diagram>
</mxfile>
